<?xml version="1.0" encoding="UTF-8" standalone="no"?>
<!-- Created with Inkscape (http://www.inkscape.org/) -->

<svg
   width="147.2645mm"
   height="19.148153mm"
   viewBox="0 0 147.2645 19.148153"
   version="1.1"
   id="svg1"
   xml:space="preserve"
   inkscape:version="1.3 (0e150ed6c4, 2023-07-21)"
   sodipodi:docname="drawing.svg"
   xmlns:inkscape="http://www.inkscape.org/namespaces/inkscape"
   xmlns:sodipodi="http://sodipodi.sourceforge.net/DTD/sodipodi-0.dtd"
   xmlns="http://www.w3.org/2000/svg"
   xmlns:svg="http://www.w3.org/2000/svg"><sodipodi:namedview
     id="namedview1"
     pagecolor="#ffffff"
     bordercolor="#000000"
     borderopacity="0.25"
     inkscape:showpageshadow="2"
     inkscape:pageopacity="0.0"
     inkscape:pagecheckerboard="0"
     inkscape:deskcolor="#d1d1d1"
     inkscape:document-units="mm"
     inkscape:zoom="2.8284273"
     inkscape:cx="448.30568"
     inkscape:cy="291.85831"
     inkscape:window-width="3440"
     inkscape:window-height="1377"
     inkscape:window-x="1072"
     inkscape:window-y="-8"
     inkscape:window-maximized="1"
     inkscape:current-layer="layer1" /><defs
     id="defs1" /><g
     inkscape:label="Layer 1"
     inkscape:groupmode="layer"
     id="layer1"
     transform="translate(-36.771485,-77.792181)"><rect
       style="fill:#ff9001;fill-opacity:1;stroke-width:0.258737"
       id="rect7"
       width="7.2098951"
       height="12.303123"
       x="55.893227"
       y="81.061722"
       inkscape:export-filename="rect7.svg"
       inkscape:export-xdpi="96"
       inkscape:export-ydpi="96" /><rect
       style="fill:#ffe4c1;fill-opacity:1;stroke-width:0.0987294"
       id="rect8"
       width="5.4239578"
       height="2.3812485"
       x="56.885414"
       y="78.84584" /><path
       d="m 221.67383,360.42239 q 0,9.84375 -5.625,16.45312 -6,7.03125 -15.65625,7.03125 -7.03125,0 -11.34375,-4.03125 -0.32813,-0.28125 -0.5625,-0.28125 -0.46875,0 -0.89063,1.73438 -0.375,1.73437 -0.9375,1.92187 -0.79687,0.23438 -13.35937,0.23438 -2.95313,0 -2.95313,-1.07813 0,-0.14062 0.0937,-0.70312 0.9375,-7.45313 0.9375,-28.40625 0,-20.01563 -1.40625,-34.82813 l -0.0469,-0.51562 q 0,-0.75 1.45312,-0.84375 1.03125,-0.0469 8.15625,-0.70313 5.01563,-0.46875 8.15625,-0.46875 0.89063,0 0.89063,1.54688 0,1.82812 -0.23438,4.82812 -0.28125,3.70313 -0.32812,4.875 -0.23438,4.64063 -0.23438,12.65625 0,1.45313 0.75,1.45313 0.375,0 0.70313,-0.375 4.21875,-4.5 11.0625,-4.5 10.26562,0 16.03125,6.98437 5.34375,6.46875 5.34375,17.01563 z m -16.96875,-0.51563 q 0,-3.89062 -2.39063,-6.5625 -2.39062,-2.71875 -6.23437,-2.71875 -3.9375,0 -6.23438,2.71875 -2.25,2.67188 -2.25,6.65625 0,4.125 2.20313,6.65625 2.34375,2.67188 6.375,2.67188 3.98437,0 6.32812,-2.76563 2.20313,-2.57812 2.20313,-6.65625 z m 102.89062,22.96875 q 0,0.32813 -0.9375,0.46875 -1.78125,0.28125 -8.95312,0.28125 -6.14063,0 -8.34375,-0.28125 -1.03125,-0.14062 -1.17188,-0.23437 -0.28125,-0.14063 -0.65625,-0.9375 -0.70312,-1.82813 -2.0625,-5.4375 -1.82812,-4.6875 -5.71875,-13.82813 -0.84375,-1.82812 -3.89062,-2.01562 1.40625,0.0937 -4.82813,0.0937 -0.70312,0 -0.70312,2.39062 0,3.1875 0.5625,9.51563 0.60937,6.32812 0.60937,9.51562 0,0.79688 -0.42187,0.9375 -0.65625,0.0469 -1.3125,0.0937 -2.76563,0.1875 -8.625,0.1875 -6.70313,0 -8.0625,-0.28125 -1.35938,-0.28125 -1.35938,-1.45312 0,-5.15625 0.46875,-15.5625 0.51563,-10.40625 0.51563,-15.60938 0,-19.82812 -0.89063,-30.9375 l -0.0469,-0.65625 q -0.0469,-0.79687 1.45312,-1.07812 1.54688,-0.28125 14.34375,-0.5625 8.67188,-0.1875 13.82813,-0.1875 10.6875,0 17.4375,4.82812 7.64062,5.4375 7.64062,15.70313 0,6.84375 -1.96875,10.92187 -1.96875,4.07813 -7.26562,7.92188 -1.07813,0.75 -1.07813,1.40625 0,-0.0469 5.71875,11.76562 5.71875,11.8125 5.71875,13.03125 z m -19.6875,-42.04687 q 0,-5.71875 -3.75,-7.92188 -2.90625,-1.6875 -9.09375,-1.6875 -4.45312,0 -4.73437,1.35938 -0.28125,1.59375 -0.28125,9.1875 0,1.07812 0.0469,3.1875 0.0469,2.10937 0.0469,3.14062 0,0.23438 1.5,0.46875 2.85937,0.42188 6,0.42188 10.26562,0 10.26562,-8.15625 z m 120.89063,-0.0937 q 0,3.46875 -0.32813,10.40625 -0.32812,6.9375 -0.32812,10.40625 0,3.375 0.23437,10.125 0.23438,6.75 0.23438,10.07812 0,1.26563 -1.17188,1.59375 -1.78125,0.46875 -7.54687,0.46875 -5.10938,0 -7.125,-0.28125 -0.89063,-0.14062 -1.125,-1.125 -0.14063,-1.40625 -0.28125,-2.8125 -0.23438,-2.15625 -0.65625,-2.15625 0.65625,0 -4.73438,3.1875 -5.39062,3.1875 -9.79687,3.1875 -12.42188,0 -14.71875,-11.20312 -1.03125,-5.20313 -1.03125,-15.09375 0,-10.6875 1.73437,-16.875 0.51563,-1.92188 1.92188,-1.92188 2.15625,0 6.5625,0.0469 4.40625,0.0469 6.5625,0.0469 1.45312,0 1.45312,1.21875 0,0.32813 -0.0937,0.98438 -0.98437,6.375 -0.98437,12.9375 0,8.15625 0.51562,11.15625 0.84375,5.15625 6.14063,5.15625 2.0625,0 4.45312,-1.82813 2.4375,-1.82812 2.53125,-3.79687 0.0937,-1.73438 0.0937,-23.53125 0,-1.54688 0.23438,-1.82813 0.28125,-0.46875 1.6875,-0.46875 2.29687,0 6.89062,0.0469 4.64063,0.0469 6.9375,0.0469 1.40625,0 1.64063,0.70313 0.0937,0.375 0.0937,1.125 z m 24.79687,14.39062 q 0,12.79688 0.0937,19.64063 0,1.07812 0.14063,3.70312 0.14062,2.39063 0.14062,3.70313 0,0.98437 -1.17187,1.17187 -2.10938,0.375 -7.59375,0.375 -5.625,0 -7.17188,-0.375 -1.03125,-0.23437 -1.17187,-1.26562 0,-0.14063 0,-2.01563 0,-4.17187 0.0937,-12.46875 0.0937,-8.34375 0.0937,-12.46875 0,-19.6875 0.0469,-17.95312 -0.14062,-10.35938 -1.17187,-17.85938 -0.0937,-0.51562 -0.0937,-0.79687 0,-1.03125 1.21875,-1.03125 h 16.73437 q 1.17188,0 1.07813,0.98437 l -0.0469,0.84375 q -1.21875,20.25 -1.21875,35.8125 z m 51.51563,2.76563 q 0,4.73437 -3.04688,5.39062 -0.51562,0.0937 -9.70312,1.03125 -5.53125,0.60938 -16.5,1.45313 0.65625,3.04687 3.98437,4.64062 2.71875,1.3125 6.1875,1.3125 4.17188,0 8.39063,-2.25 1.78125,-1.125 3.5625,-2.25 0.98437,0.46875 3.28125,4.78125 2.34375,4.3125 2.34375,5.48438 0,0.32812 -0.70313,1.07812 -5.71875,6.14063 -17.76562,6.14063 -11.15625,0 -18,-6.51563 -7.03125,-6.60937 -7.03125,-17.67187 0,-10.78125 6.28125,-17.67188 6.46875,-7.125 17.15625,-7.125 9,0 15.28125,6.5625 6.28125,6.5625 6.28125,15.60938 z m -16.40625,-2.85938 q 0,-2.90625 -2.0625,-5.10937 -2.0625,-2.20313 -4.92188,-2.20313 -2.95312,0 -4.875,2.48438 -1.78125,2.29687 -1.78125,5.39062 0,1.26563 1.3125,1.26563 3.46875,0 10.78125,-1.07813 1.54688,-0.23437 1.54688,-0.75 z m 52.92187,14.57813 q 0,1.40625 -0.375,4.26562 -0.32812,2.85938 -0.32812,4.21875 0,1.3125 -0.28125,1.6875 -0.28125,0.375 -1.54688,1.07813 -6.04687,3.32812 -13.40625,3.32812 -13.54687,0 -13.54687,-10.35937 0,-3.09375 0.23437,-9.28125 0.23438,-6.23438 0.23438,-9.32813 0,-2.0625 -2.39063,-2.0625 -0.1875,0 -0.60937,0 -0.42188,0.0469 -0.60938,0.0469 -1.78125,0 -1.78125,-1.26563 0,-0.75 0.0937,-2.29687 0.14063,-1.54688 0.14063,-2.29688 0,-0.98437 -0.14063,-3 -0.0937,-2.01562 -0.0937,-3 0,-0.9375 3,-1.03125 1.6875,-0.0469 1.82813,-0.9375 0.28125,-1.78125 0.1875,-5.625 -0.1875,-6.04687 -0.1875,-5.76562 0,-5.4375 1.03125,-5.4375 1.26562,0 3.60937,0.5625 2.67188,0.60937 3.70313,0.70312 2.39062,0.32813 7.21875,0.89063 1.17187,0.0937 1.17187,0.79687 0,1.875 -0.32812,5.67188 -0.28125,3.79687 -0.28125,5.71875 0,2.29687 1.35937,2.29687 1.64063,0 4.96875,-0.14062 3.32813,-0.14063 5.01563,-0.14063 1.03125,0 1.03125,0.70313 0,1.07812 -0.23438,3.23437 -0.23437,2.15625 -0.23437,3.23438 0,1.125 0.0469,3.28125 0.0469,2.15625 0.0469,3.28125 0,0.98437 -1.35938,0.98437 -0.9375,0 -3.14062,-0.0469 -2.20313,-0.0937 -3.14063,-0.0937 h -3.51562 q -0.70313,0 -0.70313,2.0625 0,1.125 0,3.32812 0.0469,2.25 0.0469,3.32813 0,3.9375 0.89062,5.4375 1.26563,2.01562 4.96875,2.01562 1.17188,0 3.32813,-0.51562 2.20312,-0.5625 3.09375,-0.5625 0.98437,0 0.98437,1.03125 z m 36.28125,0 q 0,1.40625 -0.375,4.26562 -0.32812,2.85938 -0.32812,4.21875 0,1.3125 -0.28125,1.6875 -0.28125,0.375 -1.54688,1.07813 -6.04687,3.32812 -13.40625,3.32812 -13.54687,0 -13.54687,-10.35937 0,-3.09375 0.23437,-9.28125 0.23438,-6.23438 0.23438,-9.32813 0,-2.0625 -2.39063,-2.0625 -0.1875,0 -0.60937,0 -0.42188,0.0469 -0.60938,0.0469 -1.78125,0 -1.78125,-1.26563 0,-0.75 0.0937,-2.29687 0.14063,-1.54688 0.14063,-2.29688 0,-0.98437 -0.14063,-3 -0.0937,-2.01562 -0.0937,-3 0,-0.9375 3,-1.03125 1.6875,-0.0469 1.82813,-0.9375 0.28125,-1.78125 0.1875,-5.625 -0.1875,-6.04687 -0.1875,-5.76562 0,-5.4375 1.03125,-5.4375 1.26562,0 3.60937,0.5625 2.67188,0.60937 3.70313,0.70312 2.39062,0.32813 7.21875,0.89063 1.17187,0.0937 1.17187,0.79687 0,1.875 -0.32812,5.67188 -0.28125,3.79687 -0.28125,5.71875 0,2.29687 1.35937,2.29687 1.64063,0 4.96875,-0.14062 3.32813,-0.14063 5.01563,-0.14063 1.03125,0 1.03125,0.70313 0,1.07812 -0.23438,3.23437 -0.23437,2.15625 -0.23437,3.23438 0,1.125 0.0469,3.28125 0.0469,2.15625 0.0469,3.28125 0,0.98437 -1.35938,0.98437 -0.9375,0 -3.14062,-0.0469 -2.20313,-0.0937 -3.14063,-0.0937 h -3.51562 q -0.70313,0 -0.70313,2.0625 0,1.125 0,3.32812 0.0469,2.25 0.0469,3.32813 0,3.9375 0.89062,5.4375 1.26563,2.01562 4.96875,2.01562 1.17188,0 3.32813,-0.51562 2.20312,-0.5625 3.09375,-0.5625 0.98437,0 0.98437,1.03125 z m 47.85938,-11.71875 q 0,4.73437 -3.04688,5.39062 -0.51562,0.0937 -9.70312,1.03125 -5.53125,0.60938 -16.5,1.45313 0.65625,3.04687 3.98437,4.64062 2.71875,1.3125 6.1875,1.3125 4.17188,0 8.39063,-2.25 1.78125,-1.125 3.5625,-2.25 0.98437,0.46875 3.28125,4.78125 2.34375,4.3125 2.34375,5.48438 0,0.32812 -0.70313,1.07812 -5.71875,6.14063 -17.76562,6.14063 -11.15625,0 -18,-6.51563 -7.03125,-6.60937 -7.03125,-17.67187 0,-10.78125 6.28125,-17.67188 6.46875,-7.125 17.15625,-7.125 9,0 15.28125,6.5625 6.28125,6.5625 6.28125,15.60938 z m -16.40625,-2.85938 q 0,-2.90625 -2.0625,-5.10937 -2.0625,-2.20313 -4.92188,-2.20313 -2.95312,0 -4.875,2.48438 -1.78125,2.29687 -1.78125,5.39062 0,1.26563 1.3125,1.26563 3.46875,0 10.78125,-1.07813 1.54688,-0.23437 1.54688,-0.75 z"
       id="text2"
       style="font-size:96px;font-family:'Berlin Sans FB Demi';-inkscape-font-specification:'Berlin Sans FB Demi';white-space:pre"
       transform="matrix(0.26458333,0,0,0.26458333,23.759983,-5.7997486)"
       aria-label="b R  ulette" /><g
       id="g2"
       transform="matrix(1.2032251,0,0,1.231086,-31.469106,49.351082)"><rect
         style="fill:#ffffff;fill-opacity:1;stroke-width:0.0481151"
         id="rect1216"
         width="0.44602013"
         height="0.68849528"
         x="130.4305"
         y="13.189584"
         ry="0"
         transform="matrix(0.97599876,0.21777606,-0.6816698,0.73165996,0,0)" /><rect
         style="fill:#ffffff;fill-opacity:1;stroke-width:0.247821"
         id="rect1214"
         width="4.2192206"
         height="7.9937859"
         x="116.13142"
         y="28.881817"
         ry="0" /><rect
         style="fill:#ffffff;fill-opacity:1;stroke-width:0.0883023"
         id="rect1217"
         width="0.57777107"
         height="1.7901123"
         x="-124.7196"
         y="31.548229"
         ry="0"
         transform="matrix(-0.99892555,-0.04634378,-0.18459601,0.98281449,0,0)" /><rect
         style="fill:#ffffff;fill-opacity:1;stroke-width:0.0285611"
         id="rect1218"
         width="0.42542565"
         height="1.0530175"
         x="31.235134"
         y="104.57994"
         ry="0"
         transform="matrix(0.72385216,-0.6899551,0.87760442,0.47938552,0,0)" /><rect
         style="fill:#ffffff;fill-opacity:1;stroke-width:0.035423"
         id="rect1220"
         width="0.46238285"
         height="1.4903356"
         x="56.474102"
         y="-104.06661"
         ry="0"
         transform="matrix(0.40919316,0.91244779,-0.97874264,0.20509226,0,0)" /><rect
         style="fill:#ffffff;fill-opacity:1;stroke-width:0.0532145"
         id="rect1221"
         width="0.88604778"
         height="1.7551672"
         x="70.072891"
         y="-79.995674"
         ry="0"
         transform="matrix(0.67660006,0.7363507,-0.9630545,0.26930657,0,0)" /><rect
         style="fill:#ffffff;fill-opacity:1;stroke-width:0.117246"
         id="rect1222"
         width="1.9735544"
         height="3.8252871"
         x="69.981133"
         y="-79.997284"
         ry="0"
         transform="matrix(0.6597655,0.75147154,-0.95974282,0.28088026,0,0)" /><rect
         style="fill:#ffffff;fill-opacity:1;stroke-width:0.0439647"
         id="rect1219"
         width="0.47203171"
         height="2.2487979"
         x="48.770386"
         y="91.294174"
         ry="0"
         transform="matrix(0.84614119,-0.5329588,0.801071,0.59856934,0,0)" /><rect
         style="fill:#ffffff;fill-opacity:1;stroke-width:0.117246"
         id="rect1223"
         width="1.9735544"
         height="3.8252871"
         x="68.711449"
         y="-80.809814"
         ry="0"
         transform="matrix(0.6597655,0.75147154,-0.95974282,0.28088026,0,0)" /><rect
         style="fill:#ffffff;fill-opacity:1;stroke-width:0.117246"
         id="rect1224"
         width="1.9735544"
         height="3.8252871"
         x="67.20961"
         y="-80.338913"
         ry="0"
         transform="matrix(0.6597655,0.75147154,-0.95974282,0.28088026,0,0)" /><rect
         style="fill:#ffffff;fill-opacity:1;stroke-width:0.138215"
         id="rect1225"
         width="2.2729909"
         height="4.6156445"
         x="65.050606"
         y="-77.240753"
         ry="0"
         transform="matrix(0.69618102,0.71786627,-0.9666467,0.25611356,0,0)" /><rect
         style="fill:#ffffff;fill-opacity:1;stroke-width:0.264583"
         id="rect1226"
         width="2.5081575"
         height="2.4438457"
         x="114.7672"
         y="32.541737" /><rect
         style="fill:#ffffff;fill-opacity:1;stroke-width:0.264583"
         id="rect1227"
         width="2.5081575"
         height="2.4438457"
         x="112.45831"
         y="-39.728252"
         transform="rotate(35.338291)" /><rect
         style="fill:#ffffff;fill-opacity:1;stroke-width:0.296117"
         id="rect1228"
         width="2.5601037"
         height="2.9989836"
         x="118.88314"
         y="-8.8733349"
         transform="matrix(0.94153977,0.33690187,-0.22524396,0.9743024,0,0)" /><rect
         style="fill:#ffffff;fill-opacity:1;stroke-width:0.296117"
         id="rect1229"
         width="2.5601037"
         height="2.9989836"
         x="118.86689"
         y="-10.913962"
         transform="matrix(0.94153977,0.33690187,-0.22524396,0.9743024,0,0)" /><rect
         style="fill:#ffffff;fill-opacity:1;stroke-width:0.264583"
         id="rect1231"
         width="2.5081575"
         height="2.4438457"
         x="118.1806"
         y="-43.53476"
         transform="rotate(35.338291)" /><rect
         style="fill:#ffffff;fill-opacity:1;stroke-width:0.296117"
         id="rect1233"
         width="2.5601037"
         height="2.9989836"
         x="127.00068"
         y="-12.448367"
         transform="matrix(0.94153977,0.33690187,-0.22524396,0.9743024,0,0)" /><rect
         style="fill:#ffffff;fill-opacity:1;stroke-width:0.264583"
         id="rect1234"
         width="2.5081575"
         height="2.4438457"
         x="104.23682"
         y="66.020912"
         transform="rotate(-15.46126)" /><path
         id="path3924"
         sodipodi:nodetypes="cccccccccccssssccssssccssssccccccccccccssssccssssccsssssccssssccccccccccccssssccsssssccsssssccsssssccsssssccsssssccssssc"
         style="fill:#d00000;stroke-width:0.0326013"
         d="m 120.11123,26.714688 c -0.0347,-8.62e-4 -0.0721,0.0078 -0.11961,0.02373 l -5.26315,1.533203 c -0.0438,0.01017 -0.0413,0.02188 -0.005,0.04984 l 4.67202,3.700196 c 0.086,0.07076 0.12649,0.07953 0.24641,0.04272 l 5.23892,-1.801355 c 0.12019,-0.04382 0.12855,-0.05448 0.005,-0.135286 l -4.59804,-3.336833 c -0.071,-0.04963 -0.11926,-0.07484 -0.17703,-0.07594 z m -0.60045,0.448569 c 0.10481,-8.61e-4 0.21545,0.01064 0.33013,0.03562 0.45876,0.09979 0.7841,0.377912 0.72486,0.619439 -0.0593,0.241527 -0.47902,0.356124 -0.93778,0.256321 -0.45875,-0.09979 -0.7841,-0.375543 -0.72486,-0.61707 0.0444,-0.18115 0.29323,-0.292753 0.60762,-0.294295 z m -2.96641,0.894767 c 0.10481,-8.61e-4 0.21784,0.01064 0.33252,0.03562 0.45876,0.09979 0.78171,0.375539 0.72247,0.617067 -0.0593,0.241531 -0.47902,0.358492 -0.93778,0.258694 -0.45875,-0.09978 -0.78171,-0.377908 -0.72247,-0.619435 0.0444,-0.18115 0.29084,-0.290388 0.60523,-0.291926 z m 4.49495,0.22784 c 0.10481,-8.61e-4 0.21784,0.01305 0.33251,0.03799 0.45876,0.09978 0.78172,0.375544 0.72248,0.617071 -0.0592,0.241527 -0.47902,0.356119 -0.93778,0.256317 -0.45876,-0.09978 -0.78171,-0.375539 -0.72247,-0.617066 0.0444,-0.181141 0.29083,-0.292757 0.60526,-0.294295 z m -6.64079,0.287176 c -0.01,0.0026 -0.0127,0.01731 -0.0191,0.04747 l -1.18656,5.888171 c -0.0138,0.06125 -0.0114,0.07643 0.0455,0.125794 l 4.50706,3.854437 c 0.10484,0.09941 0.12685,0.09813 0.14114,-0.02373 l 1.31337,-5.971298 c 0.0275,-0.08135 -0.001,-0.126108 -0.0478,-0.163763 L 114.44641,28.602 c -0.0242,-0.02029 -0.0382,-0.03088 -0.0478,-0.02847 z m 3.66031,0.671655 c 0.1048,-8.61e-4 0.21784,0.01064 0.33251,0.03562 0.45876,0.09979 0.78172,0.375539 0.72247,0.617067 -0.0593,0.241531 -0.47902,0.356123 -0.93777,0.256325 -0.45876,-0.09978 -0.78172,-0.375539 -0.72247,-0.61707 0.0444,-0.18115 0.29083,-0.290384 0.60523,-0.291926 z m 4.54306,0.196986 c 0.1048,-8.61e-4 0.21784,0.01064 0.33251,0.03562 0.45876,0.09979 0.78172,0.375539 0.72247,0.617067 -0.0592,0.241531 -0.47901,0.358492 -0.93777,0.258698 -0.45876,-0.09979 -0.78171,-0.377907 -0.72247,-0.619435 0.0444,-0.181141 0.29083,-0.290379 0.60526,-0.291921 z m -7.91141,0.21597 c 0.0177,-0.0017 0.037,-8.61e-4 0.055,0 0.21589,0.01133 0.44966,0.212065 0.58612,0.534005 0.18193,0.429249 0.12127,0.911008 -0.13397,1.07512 -0.25524,0.164111 -0.60991,-0.05015 -0.79183,-0.47942 -0.18193,-0.429245 -0.12128,-0.911003 0.13397,-1.075115 0.0479,-0.03079 0.0977,-0.04938 0.15071,-0.05459 z m 4.9306,0.773715 c 0.1048,-8.62e-4 0.21784,0.01064 0.33251,0.03562 0.45876,0.09978 0.78172,0.375543 0.72247,0.617071 -0.0592,0.241527 -0.47901,0.356119 -0.93777,0.256321 -0.45876,-0.09979 -0.78172,-0.375539 -0.72247,-0.617066 0.0444,-0.181146 0.29083,-0.290384 0.60522,-0.291926 z m 5.50469,0.163763 c -0.0101,0.0022 -0.0242,0.0056 -0.0407,0.01189 l -5.38032,1.85156 c -0.10959,0.04476 -0.1063,0.06303 -0.1244,0.144774 l -1.31098,5.95246 c -0.004,0.08764 -0.037,0.127517 0.067,0.0807 l 5.30144,-1.965148 c 0.10286,-0.04882 0.12258,-0.0574 0.13396,-0.156636 l 1.37556,-5.869337 c 0.0114,-0.04135 0.009,-0.05608 -0.0215,-0.04984 z m -0.87316,0.965945 c 0.15149,0.0026 0.27037,0.07554 0.32296,0.21598 0.10517,0.280874 -0.0974,0.730426 -0.45453,1.003906 -0.35717,0.273492 -0.73213,0.26664 -0.8373,-0.01426 -0.10517,-0.280874 0.0974,-0.730426 0.45454,-1.00394 0.17859,-0.136751 0.36285,-0.204162 0.51434,-0.201737 z m -6.52132,0.515008 c 0.21861,0.0056 0.45709,0.209402 0.59567,0.536377 0.18193,0.429245 0.12367,0.911003 -0.13158,1.075115 -0.25524,0.164117 -0.60991,-0.05252 -0.79182,-0.481788 -0.18193,-0.429245 -0.12128,-0.908635 0.13396,-1.072747 0.0479,-0.03079 0.0977,-0.04939 0.15072,-0.05459 0.0144,-0.0013 0.0285,-0.0026 0.0431,-0.0022 z m -1.92098,0.688279 c 0.2186,0.0056 0.45709,0.209407 0.59567,0.536373 0.18193,0.42925 0.12367,0.911008 -0.13158,1.07512 -0.25524,0.164116 -0.60991,-0.05253 -0.79183,-0.481788 -0.18192,-0.42925 -0.12127,-0.908635 0.13397,-1.072747 0.0479,-0.03079 0.0977,-0.04939 0.15071,-0.05459 0.0144,-0.0013 0.0285,-0.0026 0.0431,-0.0022 z m -1.89228,0.681135 c 0.0177,-0.0017 0.037,-8.62e-4 0.055,0 0.21588,0.01133 0.44727,0.214437 0.58372,0.536373 0.18193,0.429249 0.12367,0.908639 -0.13157,1.072751 -0.25524,0.164112 -0.60991,-0.05016 -0.79183,-0.47942 -0.18192,-0.429249 -0.12128,-0.911003 0.13397,-1.075119 0.0479,-0.03079 0.0977,-0.04938 0.15071,-0.05459 z m 8.31563,0.569592 c 0.14824,0.0048 0.26641,0.07773 0.31818,0.215979 0.10517,0.280879 -0.0998,0.73043 -0.45693,1.00391 -0.35716,0.273493 -0.73212,0.266645 -0.83729,-0.01426 -0.10518,-0.280875 0.0997,-0.730431 0.45693,-1.003911 0.15626,-0.119652 0.31557,-0.186309 0.45453,-0.199363 0.0223,-0.0022 0.0434,-0.003 0.0646,-0.0022 z m -5.3754,1.905822 c 0.0176,-0.0017 0.037,-8.62e-4 0.055,0 0.21588,0.01133 0.44966,0.21206 0.58611,0.534004 0.18193,0.429249 0.12128,0.911003 -0.13397,1.07512 -0.25524,0.164112 -0.60752,-0.05016 -0.78944,-0.47942 -0.18193,-0.429249 -0.12367,-0.911003 0.13158,-1.07512 0.0478,-0.03075 0.0977,-0.04938 0.15071,-0.05458 z m 3.1841,0.61707 c 0.15149,0.0026 0.27037,0.07316 0.32295,0.213597 0.10518,0.280875 -0.0973,0.730431 -0.45453,1.003911 -0.35716,0.273492 -0.73213,0.269009 -0.83729,-0.01189 -0.10517,-0.28087 0.0974,-0.730426 0.45453,-1.003941 0.17859,-0.136742 0.36286,-0.204152 0.51434,-0.201723 z" /><path
         style="fill:#ffffff;fill-opacity:1;stroke-width:0.0129191"
         d="m 114.86831,31.284988 c -0.25706,-0.108672 -0.45938,-0.397256 -0.53493,-0.763018 -0.0256,-0.123844 -0.0259,-0.351526 -5.3e-4,-0.458687 0.0688,-0.291794 0.26938,-0.448276 0.49176,-0.383628 0.24503,0.07123 0.44945,0.320352 0.55675,0.67849 0.0444,0.148082 0.0561,0.404519 0.0249,0.544317 -0.0399,0.178675 -0.13029,0.316724 -0.2463,0.375964 -0.0807,0.04119 -0.20315,0.04394 -0.29157,0.0066 z"
         id="path1198" /><path
         style="fill:#ffffff;fill-opacity:1;stroke-width:0.0129191"
         d="m 117.86466,33.705611 c -0.29386,-0.114972 -0.53278,-0.522359 -0.55088,-0.939319 -0.008,-0.190523 0.009,-0.301048 0.0669,-0.426175 0.14729,-0.318772 0.45822,-0.339735 0.72999,-0.04921 0.19248,0.205759 0.31101,0.51943 0.3105,0.821698 -2.7e-4,0.157062 -0.0234,0.278075 -0.0714,0.373661 -0.0843,0.167912 -0.19136,0.244234 -0.34113,0.243165 -0.0495,-2.65e-4 -0.10933,-0.01024 -0.144,-0.02381 z"
         id="path1199" /><path
         style="fill:#ffffff;fill-opacity:1;stroke-width:0.0129191"
         d="m 115.99167,34.409998 c -0.31164,-0.08403 -0.58283,-0.520875 -0.60257,-0.970645 -0.0128,-0.29141 0.0811,-0.522645 0.25321,-0.623843 0.0514,-0.03021 0.0738,-0.03503 0.16295,-0.03503 0.14478,0 0.22294,0.03944 0.36885,0.1861 0.0963,0.0968 0.11986,0.130087 0.18375,0.259609 0.14156,0.286975 0.18091,0.563094 0.11692,0.820364 -0.0437,0.175615 -0.16292,0.323271 -0.29201,0.361606 -0.0774,0.02297 -0.11148,0.02331 -0.1911,0.0019 z"
         id="path1200" /><path
         style="fill:#ffffff;fill-opacity:1;stroke-width:0.0129191"
         d="m 114.13224,35.08735 c -0.0848,-0.02596 -0.18195,-0.08959 -0.26534,-0.173813 -0.30385,-0.306914 -0.41914,-0.861454 -0.25294,-1.216626 0.15323,-0.327445 0.50537,-0.32176 0.77165,0.01246 0.0842,0.10563 0.18728,0.311428 0.22399,0.44699 0.11287,0.416872 -0.003,0.834734 -0.25657,0.92538 -0.0508,0.01818 -0.16987,0.02119 -0.22079,0.0056 z"
         id="path1201" /><path
         style="fill:#ffffff;fill-opacity:1;stroke-width:0.0129191"
         d="m 117.07688,37.563011 c -0.16632,-0.04696 -0.352,-0.224917 -0.46089,-0.441714 -0.15285,-0.304324 -0.17883,-0.715198 -0.0603,-0.9529 0.0408,-0.08186 0.12248,-0.169754 0.19263,-0.207356 0.0799,-0.04284 0.222,-0.03909 0.31967,0.0084 0.10077,0.04904 0.20121,0.133326 0.27511,0.230857 0.0805,0.106264 0.17801,0.31174 0.21323,0.449408 0.0357,0.139628 0.0474,0.358672 0.0257,0.482298 -0.02,0.113848 -0.0849,0.258951 -0.14621,0.326822 -0.0886,0.0981 -0.23252,0.139848 -0.35897,0.104142 z"
         id="path1202" /><path
         style="fill:#ffffff;fill-opacity:1;stroke-width:0.0129191"
         d="m 119.3139,37.941204 c -0.11752,-0.02439 -0.21767,-0.124542 -0.24706,-0.247052 -0.0559,-0.232916 0.0733,-0.557628 0.32347,-0.812978 0.14076,-0.14369 0.27732,-0.237847 0.42231,-0.29119 0.12766,-0.04697 0.30206,-0.05271 0.38282,-0.01262 0.21441,0.10646 0.24868,0.392231 0.0859,0.716163 -0.20663,0.411176 -0.65635,0.712248 -0.96742,0.647666 z"
         id="path1203" /><path
         style="fill:#ffffff;fill-opacity:1;stroke-width:0.0129191"
         d="m 121.51708,35.420759 c -0.14032,-0.02132 -0.25527,-0.143595 -0.2737,-0.291155 -0.0426,-0.341252 0.24946,-0.80078 0.64259,-1.010944 0.12557,-0.06712 0.21437,-0.09149 0.33344,-0.09149 0.22024,0 0.349,0.135684 0.349,0.367782 0,0.123893 -0.0266,0.221075 -0.10259,0.375065 -0.19978,0.404733 -0.62923,0.699294 -0.94874,0.65074 z"
         id="path1204" /><path
         style="fill:#ffffff;fill-opacity:1;stroke-width:0.0129191"
         d="m 123.54179,32.967265 c -0.51536,-0.101918 -0.25626,-0.988246 0.38315,-1.310701 0.16656,-0.08399 0.32908,-0.106781 0.45518,-0.06381 0.22358,0.07618 0.2779,0.376597 0.12656,0.699995 -0.1888,0.403468 -0.66218,0.734388 -0.96489,0.674521 z"
         id="path1205" /><path
         style="fill:#ffffff;fill-opacity:1;stroke-width:0.0129191"
         d="m 122.90431,30.376724 c -0.0177,-0.003 -0.073,-0.01204 -0.12273,-0.02 -0.19411,-0.03111 -0.40081,-0.114781 -0.5567,-0.225361 -0.0958,-0.06797 -0.14964,-0.127664 -0.19402,-0.215249 -0.0466,-0.09188 -0.0403,-0.194511 0.0161,-0.265089 0.0553,-0.06919 0.14846,-0.128288 0.25507,-0.161819 0.0809,-0.02545 0.11923,-0.02889 0.31809,-0.02853 0.18778,2.64e-4 0.24484,0.0051 0.33677,0.02827 0.47125,0.118607 0.77721,0.406995 0.67932,0.640305 -0.0395,0.09421 -0.17385,0.183904 -0.33364,0.222798 -0.0806,0.01961 -0.33536,0.0354 -0.39823,0.02469 z"
         id="path1206" /><path
         style="fill:#ffffff;fill-opacity:1;stroke-width:0.0129191"
         d="m 119.80676,31.346488 c -0.42062,-0.07625 -0.75667,-0.305776 -0.78783,-0.53811 -0.0154,-0.11498 0.0885,-0.249557 0.23649,-0.306181 0.0897,-0.03432 0.26701,-0.06654 0.36624,-0.06654 0.52076,0 1.05496,0.302408 1.05142,0.595196 -8e-4,0.07416 -0.0261,0.123317 -0.0951,0.185634 -0.11305,0.102132 -0.28332,0.150056 -0.52646,0.148177 -0.083,-5.29e-4 -0.19319,-0.0088 -0.24481,-0.01818 z"
         id="path1207" /><path
         style="fill:#ffffff;fill-opacity:1;stroke-width:0.0129191"
         d="m 118.20822,30.151257 c -0.26206,-0.05374 -0.46716,-0.151784 -0.60766,-0.2905 -0.13468,-0.132961 -0.17279,-0.235246 -0.12969,-0.348099 0.0703,-0.184055 0.38566,-0.29215 0.73878,-0.253219 0.48051,0.05298 0.89733,0.318828 0.90103,0.574691 0.002,0.149489 -0.11811,0.258783 -0.35006,0.318105 -0.13002,0.03325 -0.38769,0.0328 -0.5524,-0.0011 z"
         id="path1208" /><path
         style="fill:#ffffff;fill-opacity:1;stroke-width:0.0129191"
         d="m 116.81769,28.989117 c -0.5534,-0.07032 -0.98702,-0.41837 -0.8517,-0.68362 0.12606,-0.247103 0.64459,-0.313529 1.11598,-0.14296 0.36413,0.131757 0.57876,0.385067 0.49515,0.584364 -0.0396,0.09448 -0.17486,0.184587 -0.33364,0.222335 -0.10242,0.02434 -0.31317,0.03419 -0.42579,0.01987 z"
         id="path1209" /><path
         style="fill:#ffffff;fill-opacity:1;stroke-width:0.0129191"
         d="m 119.8231,28.095695 c -0.52542,-0.04595 -0.98607,-0.369035 -0.91058,-0.638656 0.0694,-0.247671 0.51263,-0.355777 0.97644,-0.23813 0.44679,0.113331 0.74578,0.39742 0.65857,0.625752 -0.0688,0.180115 -0.36432,0.282528 -0.72443,0.251034 z"
         id="path1210" /><path
         style="fill:#ffffff;fill-opacity:1;stroke-width:0.0129191"
         d="m 121.21421,29.202535 c -0.12946,-0.02447 -0.28685,-0.07808 -0.4028,-0.137192 -0.12559,-0.06403 -0.15863,-0.08707 -0.2415,-0.168346 -0.26567,-0.260575 -0.12028,-0.529535 0.32112,-0.594077 0.2707,-0.03958 0.65194,0.0428 0.91193,0.197061 0.0998,0.05923 0.22472,0.184934 0.26047,0.262165 0.0421,0.09087 0.0342,0.194112 -0.02,0.261901 -0.054,0.06752 -0.14673,0.127346 -0.24822,0.160083 -0.11075,0.03572 -0.43504,0.04599 -0.58102,0.01842 z"
         id="path1211" /></g><path
       d="m 185.96875,338.91458 q 0,11.34375 -5.95313,18.375 -6.375,7.45312 -17.57812,7.45312 -1.875,0 -5.67188,-0.1875 -3.75,-0.23437 -5.625,-0.23437 -2.01562,0 -2.01562,1.73437 0,2.15625 0.42187,6.42188 0.42188,4.26562 0.42188,6.375 0,1.07812 -0.98438,1.07812 -2.85937,0 -8.57812,-0.1875 -5.71875,-0.14062 -8.57813,-0.14062 -1.35937,0 -1.35937,-1.35938 0,-5.20312 0.14062,-15.60937 0.1875,-10.45313 0.1875,-15.65625 0,-14.71875 -1.26562,-30.9375 l -0.0469,-0.65625 q -0.0937,-0.89063 1.40625,-1.07813 3.65625,-0.46875 16.125,-0.46875 7.35938,0 14.10938,0.1875 11.10937,0.32813 17.90625,6.98438 6.9375,6.84375 6.9375,17.90625 z m -18.70313,0.75 q 0,-10.92188 -10.64062,-10.92188 -7.5,0 -7.875,0.84375 -0.32813,0.60938 -0.32813,10.82813 0,1.45312 0.0937,4.3125 0.14063,2.8125 0.14063,4.26562 0,0.9375 8.4375,0.9375 10.17187,0 10.17187,-10.26562 z"
       id="text3"
       style="font-size:96px;font-family:'Berlin Sans FB Demi';-inkscape-font-specification:'Berlin Sans FB Demi';white-space:pre"
       transform="matrix(0.26458333,0,0,0.26458333,2.5135416,-4.6302082)"
       aria-label="P" /><path
       d="m 185.78125,356.58645 q 0,11.95313 -2.85938,16.3125 -5.25,7.96875 -26.20312,7.96875 -9.46875,0 -14.57813,-1.45312 -8.15625,-2.34375 -10.59375,-8.95313 -1.21875,-3.23437 -1.21875,-11.53125 0,-1.92187 0.14063,-5.71875 0.14062,-3.79687 0.14062,-5.67187 0,-5.4375 -0.51562,-16.3125 -0.51563,-10.875 -0.51563,-16.26563 0,-1.125 0.98438,-1.125 2.85937,0 8.625,0.23438 5.8125,0.23437 8.67187,0.23437 1.17188,0 1.17188,1.03125 0,6.1875 -0.42188,18.5625 -0.375,12.32813 -0.375,18.51563 0,7.35937 1.54688,9.9375 2.0625,3.51562 8.625,3.51562 9.60937,0 9.60937,-9.32812 0,-6.79688 -0.32812,-20.39063 -0.32813,-13.59375 -0.32813,-20.39062 0,-1.45313 1.17188,-1.45313 2.76562,0 8.34375,-0.23437 5.57812,-0.23438 8.34375,-0.23438 1.35937,0 1.35937,1.125 0,5.39063 -0.46875,16.26563 -0.42187,10.875 -0.42187,16.3125 0,1.5 0.0469,4.54687 0.0469,3 0.0469,4.5 z"
       id="text3-9"
       style="font-size:96px;font-family:'Berlin Sans FB Demi';-inkscape-font-specification:'Berlin Sans FB Demi';white-space:pre"
       transform="matrix(0.26458333,0,0,0.26458333,17.732676,-4.3223528)"
       aria-label="U" /></g></svg>
